<?xml version="1.0" standalone="no"?>
<!DOCTYPE svg PUBLIC "-//W3C//DTD SVG 20010904//EN"
 "http://www.w3.org/TR/2001/REC-SVG-20010904/DTD/svg10.dtd">
<svg version="1.0" xmlns="http://www.w3.org/2000/svg"
 width="1920.000000pt" height="1407.000000pt" viewBox="0 0 1920.000000 1407.000000"
 preserveAspectRatio="xMidYMid meet">

<g transform="translate(0.000000,1407.000000) scale(0.100000,-0.100000)"
fill="#1486e0" stroke="none">
<path d="M0 8256 l0 -5516 92 -46 c280 -141 498 -187 953 -204 149 -5 317 -15
374 -21 249 -25 387 -111 471 -292 75 -163 94 -310 87 -654 -3 -137 -13 -354
-22 -483 -22 -315 -17 -672 12 -777 55 -197 147 -259 383 -257 144 2 274 22
775 119 1330 258 2263 348 3580 348 942 0 1663 -40 2810 -158 1448 -149 2707
-165 3745 -49 748 83 1387 223 2079 454 302 101 484 169 1166 440 702 279 872
343 1210 456 431 144 817 248 1245 334 l235 47 0 5804 0 5804 -125 17 c-383
52 -805 84 -1280 98 -1326 36 -2775 -138 -4284 -516 -584 -146 -967 -261
-1881 -564 -396 -131 -850 -279 -1010 -329 -2300 -717 -3736 -956 -4475 -744
-47 13 -132 47 -189 74 -91 44 -116 63 -196 142 -75 75 -99 107 -133 177 -79
162 -102 307 -102 635 0 244 -12 418 -36 509 -65 251 -254 350 -625 325 -144
-10 -255 -29 -489 -84 -525 -124 -867 -166 -1365 -167 -576 -1 -1075 66 -1760
236 -244 60 -880 243 -1227 352 -17 5 -18 -262 -18 -5510z"/>
</g>
</svg>
